%TF.GenerationSoftware,KiCad,Pcbnew,(6.0.10)*%
%TF.CreationDate,2022-12-23T07:28:00+11:00*%
%TF.ProjectId,bbc1770,62626331-3737-4302-9e6b-696361645f70,rev?*%
%TF.SameCoordinates,Original*%
%TF.FileFunction,Soldermask,Top*%
%TF.FilePolarity,Negative*%
%FSLAX46Y46*%
G04 Gerber Fmt 4.6, Leading zero omitted, Abs format (unit mm)*
G04 Created by KiCad (PCBNEW (6.0.10)) date 2022-12-23 07:28:00*
%MOMM*%
%LPD*%
G01*
G04 APERTURE LIST*
%ADD10R,1.600000X2.400000*%
%ADD11O,1.600000X2.400000*%
%ADD12R,2.400000X1.600000*%
%ADD13O,2.400000X1.600000*%
%ADD14R,1.600000X1.600000*%
%ADD15O,1.600000X1.600000*%
%ADD16C,1.600000*%
G04 APERTURE END LIST*
D10*
%TO.C,U1*%
X35555000Y-21580000D03*
D11*
X38095000Y-21580000D03*
X40635000Y-21580000D03*
X43175000Y-21580000D03*
X45715000Y-21580000D03*
X48255000Y-21580000D03*
X50795000Y-21580000D03*
X50795000Y-13960000D03*
X48255000Y-13960000D03*
X45715000Y-13960000D03*
X43175000Y-13960000D03*
X40635000Y-13960000D03*
X38095000Y-13960000D03*
X35555000Y-13960000D03*
%TD*%
D12*
%TO.C,U5*%
X25395000Y-54595000D03*
D13*
X25395000Y-57135000D03*
X25395000Y-59675000D03*
X25395000Y-62215000D03*
X25395000Y-64755000D03*
X25395000Y-67295000D03*
X25395000Y-69835000D03*
X25395000Y-72375000D03*
X25395000Y-74915000D03*
X25395000Y-77455000D03*
X25395000Y-79995000D03*
X25395000Y-82535000D03*
X25395000Y-85075000D03*
X25395000Y-87615000D03*
X40635000Y-87615000D03*
X40635000Y-85075000D03*
X40635000Y-82535000D03*
X40635000Y-79995000D03*
X40635000Y-77455000D03*
X40635000Y-74915000D03*
X40635000Y-72375000D03*
X40635000Y-69835000D03*
X40635000Y-67295000D03*
X40635000Y-64755000D03*
X40635000Y-62215000D03*
X40635000Y-59675000D03*
X40635000Y-57135000D03*
X40635000Y-54595000D03*
%TD*%
D14*
%TO.C,U4*%
X35555000Y-41915000D03*
D15*
X35555000Y-44455000D03*
X35555000Y-46995000D03*
X35555000Y-49535000D03*
X35555000Y-52075000D03*
X35555000Y-54615000D03*
X35555000Y-57155000D03*
X35555000Y-59695000D03*
X35555000Y-62235000D03*
X35555000Y-64775000D03*
X35555000Y-67315000D03*
X35555000Y-69855000D03*
X35555000Y-72395000D03*
X35555000Y-74935000D03*
X35555000Y-77475000D03*
X35555000Y-80015000D03*
X35555000Y-82555000D03*
X35555000Y-85095000D03*
X35555000Y-87635000D03*
X35555000Y-90175000D03*
X50795000Y-90175000D03*
X50795000Y-87635000D03*
X50795000Y-85095000D03*
X50795000Y-82555000D03*
X50795000Y-80015000D03*
X50795000Y-77475000D03*
X50795000Y-74935000D03*
X50795000Y-72395000D03*
X50795000Y-69855000D03*
X50795000Y-67315000D03*
X50795000Y-64775000D03*
X50795000Y-62235000D03*
X50795000Y-59695000D03*
X50795000Y-57155000D03*
X50795000Y-54615000D03*
X50795000Y-52075000D03*
X50795000Y-49535000D03*
X50795000Y-46995000D03*
X50795000Y-44455000D03*
X50795000Y-41915000D03*
%TD*%
D12*
%TO.C,U2*%
X23860000Y-26660000D03*
D13*
X23860000Y-29200000D03*
X23860000Y-31740000D03*
X23860000Y-34280000D03*
X23860000Y-36820000D03*
X23860000Y-39360000D03*
X23860000Y-41900000D03*
X23860000Y-44440000D03*
X31480000Y-44440000D03*
X31480000Y-41900000D03*
X31480000Y-39360000D03*
X31480000Y-36820000D03*
X31480000Y-34280000D03*
X31480000Y-31740000D03*
X31480000Y-29200000D03*
X31480000Y-26660000D03*
%TD*%
D16*
%TO.C,C3*%
X21050000Y-55880000D03*
X21050000Y-50880000D03*
%TD*%
%TO.C,Cc2*%
X45720000Y-38220000D03*
X40720000Y-38220000D03*
%TD*%
%TO.C,c1*%
X22860000Y-20320000D03*
X27860000Y-20320000D03*
%TD*%
D10*
%TO.C,U3*%
X35555000Y-34280000D03*
D11*
X38095000Y-34280000D03*
X40635000Y-34280000D03*
X43175000Y-34280000D03*
X45715000Y-34280000D03*
X48255000Y-34280000D03*
X50795000Y-34280000D03*
X50795000Y-26660000D03*
X48255000Y-26660000D03*
X45715000Y-26660000D03*
X43175000Y-26660000D03*
X40635000Y-26660000D03*
X38095000Y-26660000D03*
X35555000Y-26660000D03*
%TD*%
M02*
