%TF.GenerationSoftware,KiCad,Pcbnew,(6.0.10)*%
%TF.CreationDate,2022-12-23T07:28:00+11:00*%
%TF.ProjectId,bbc1770,62626331-3737-4302-9e6b-696361645f70,rev?*%
%TF.SameCoordinates,Original*%
%TF.FileFunction,Copper,L2,Bot*%
%TF.FilePolarity,Positive*%
%FSLAX46Y46*%
G04 Gerber Fmt 4.6, Leading zero omitted, Abs format (unit mm)*
G04 Created by KiCad (PCBNEW (6.0.10)) date 2022-12-23 07:28:00*
%MOMM*%
%LPD*%
G01*
G04 APERTURE LIST*
%TA.AperFunction,ComponentPad*%
%ADD10R,1.600000X2.400000*%
%TD*%
%TA.AperFunction,ComponentPad*%
%ADD11O,1.600000X2.400000*%
%TD*%
%TA.AperFunction,ComponentPad*%
%ADD12R,2.400000X1.600000*%
%TD*%
%TA.AperFunction,ComponentPad*%
%ADD13O,2.400000X1.600000*%
%TD*%
%TA.AperFunction,ComponentPad*%
%ADD14R,1.600000X1.600000*%
%TD*%
%TA.AperFunction,ComponentPad*%
%ADD15O,1.600000X1.600000*%
%TD*%
%TA.AperFunction,ComponentPad*%
%ADD16C,1.600000*%
%TD*%
%TA.AperFunction,Conductor*%
%ADD17C,0.250000*%
%TD*%
G04 APERTURE END LIST*
D10*
%TO.P,U1,1*%
%TO.N,Net-(U1-Pad1)*%
X35555000Y-21580000D03*
D11*
%TO.P,U1,2*%
%TO.N,Net-(U1-Pad11)*%
X38095000Y-21580000D03*
%TO.P,U1,3*%
%TO.N,Net-(U1-Pad3)*%
X40635000Y-21580000D03*
%TO.P,U1,4*%
%TO.N,Net-(U1-Pad13)*%
X43175000Y-21580000D03*
%TO.P,U1,5*%
%TO.N,Net-(U1-Pad5)*%
X45715000Y-21580000D03*
%TO.P,U1,6*%
%TO.N,/WR*%
X48255000Y-21580000D03*
%TO.P,U1,7*%
%TO.N,GND*%
X50795000Y-21580000D03*
%TO.P,U1,8*%
%TO.N,Net-(U1-Pad5)*%
X50795000Y-13960000D03*
%TO.P,U1,9*%
%TO.N,/WR*%
X48255000Y-13960000D03*
%TO.P,U1,10*%
%TO.N,Net-(U1-Pad10)*%
X45715000Y-13960000D03*
%TO.P,U1,11*%
%TO.N,Net-(U1-Pad11)*%
X43175000Y-13960000D03*
%TO.P,U1,12*%
%TO.N,Net-(U1-Pad10)*%
X40635000Y-13960000D03*
%TO.P,U1,13*%
%TO.N,Net-(U1-Pad13)*%
X38095000Y-13960000D03*
%TO.P,U1,14*%
%TO.N,VCC*%
X35555000Y-13960000D03*
%TD*%
D12*
%TO.P,U5,1,~{CS}*%
%TO.N,Net-(U1-Pad3)*%
X25395000Y-54595000D03*
D13*
%TO.P,U5,2,R/~{W}*%
%TO.N,/WR*%
X25395000Y-57135000D03*
%TO.P,U5,3,A0*%
%TO.N,/A3*%
X25395000Y-59675000D03*
%TO.P,U5,4,A1*%
%TO.N,/A4*%
X25395000Y-62215000D03*
%TO.P,U5,5,DI0*%
%TO.N,/D0*%
X25395000Y-64755000D03*
%TO.P,U5,6,DI1*%
%TO.N,/D1*%
X25395000Y-67295000D03*
%TO.P,U5,7,DI2*%
%TO.N,/D2*%
X25395000Y-69835000D03*
%TO.P,U5,8,DI3*%
%TO.N,/D3*%
X25395000Y-72375000D03*
%TO.P,U5,9,DI4*%
%TO.N,/D4*%
X25395000Y-74915000D03*
%TO.P,U5,10,DI5*%
%TO.N,/D5*%
X25395000Y-77455000D03*
%TO.P,U5,11,DI6*%
%TO.N,/D6*%
X25395000Y-79995000D03*
%TO.P,U5,12,DI7*%
%TO.N,/D7*%
X25395000Y-82535000D03*
%TO.P,U5,13,~{MR}*%
%TO.N,/RESET*%
X25395000Y-85075000D03*
%TO.P,U5,14,GND*%
%TO.N,GND*%
X25395000Y-87615000D03*
%TO.P,U5,15,VCC*%
%TO.N,VCC*%
X40635000Y-87615000D03*
%TO.P,U5,16,STEP*%
%TO.N,Net-(U4-Pad36)*%
X40635000Y-85075000D03*
%TO.P,U5,17,DIRC*%
%TO.N,Net-(U4-Pad37)*%
X40635000Y-82535000D03*
%TO.P,U5,18,CLK*%
%TO.N,Net-(U4-Pad3)*%
X40635000Y-79995000D03*
%TO.P,U5,19,~{RD}*%
%TO.N,Net-(U4-Pad27)*%
X40635000Y-77455000D03*
%TO.P,U5,20,MOTOR*%
%TO.N,Net-(U4-Pad38)*%
X40635000Y-74915000D03*
%TO.P,U5,21,WG*%
%TO.N,Net-(U4-Pad35)*%
X40635000Y-72375000D03*
%TO.P,U5,22,WD*%
%TO.N,Net-(U4-Pad29)*%
X40635000Y-69835000D03*
%TO.P,U5,23,~{TR00}*%
%TO.N,Net-(U4-Pad31)*%
X40635000Y-67295000D03*
%TO.P,U5,24,~{IP}*%
%TO.N,Net-(U4-Pad34)*%
X40635000Y-64755000D03*
%TO.P,U5,25,~{WPRT}*%
%TO.N,Net-(U4-Pad33)*%
X40635000Y-62215000D03*
%TO.P,U5,26,~{DDEN}*%
%TO.N,Net-(U2-Pad6)*%
X40635000Y-59675000D03*
%TO.P,U5,27,DRQ*%
%TO.N,Net-(U3-Pad5)*%
X40635000Y-57135000D03*
%TO.P,U5,28,INTRQ*%
%TO.N,Net-(U3-Pad6)*%
X40635000Y-54595000D03*
%TD*%
D14*
%TO.P,U4,1,Fault_Reset*%
%TO.N,Net-(U2-Pad4)*%
X35555000Y-41915000D03*
D15*
%TO.P,U4,2,Select_0*%
%TO.N,Net-(U2-Pad3)*%
X35555000Y-44455000D03*
%TO.P,U4,3,4Mhz_clk*%
%TO.N,Net-(U4-Pad3)*%
X35555000Y-46995000D03*
%TO.P,U4,4,RESET*%
%TO.N,Net-(U2-Pad15)*%
X35555000Y-49535000D03*
%TO.P,U4,5,Ready_1*%
%TO.N,unconnected-(U4-Pad5)*%
X35555000Y-52075000D03*
%TO.P,U4,6,Select_1*%
%TO.N,Net-(U3-Pad10)*%
X35555000Y-54615000D03*
%TO.P,U4,7,DACK*%
%TO.N,Net-(U3-Pad11)*%
X35555000Y-57155000D03*
%TO.P,U4,8,DRQ*%
%TO.N,unconnected-(U4-Pad8)*%
X35555000Y-59695000D03*
%TO.P,U4,9,~{RD}*%
%TO.N,Net-(U1-Pad13)*%
X35555000Y-62235000D03*
%TO.P,U4,10,WR*%
%TO.N,Net-(U1-Pad10)*%
X35555000Y-64775000D03*
%TO.P,U4,11,INT*%
%TO.N,Net-(U3-Pad1)*%
X35555000Y-67315000D03*
%TO.P,U4,12,DB0*%
%TO.N,/D0*%
X35555000Y-69855000D03*
%TO.P,U4,13,DB1*%
%TO.N,/D1*%
X35555000Y-72395000D03*
%TO.P,U4,14,DB2*%
%TO.N,/D2*%
X35555000Y-74935000D03*
%TO.P,U4,15,DB3*%
%TO.N,/D3*%
X35555000Y-77475000D03*
%TO.P,U4,16,DB4*%
%TO.N,/D4*%
X35555000Y-80015000D03*
%TO.P,U4,17,DB5*%
%TO.N,/D5*%
X35555000Y-82555000D03*
%TO.P,U4,18,DB6*%
%TO.N,/D6*%
X35555000Y-85095000D03*
%TO.P,U4,19,DB7*%
%TO.N,/D7*%
X35555000Y-87635000D03*
%TO.P,U4,20,GND*%
%TO.N,GND*%
X35555000Y-90175000D03*
%TO.P,U4,21,A0*%
%TO.N,/A3*%
X50795000Y-90175000D03*
%TO.P,U4,22,A1*%
%TO.N,/A4*%
X50795000Y-87635000D03*
%TO.P,U4,23,1NSYNC*%
%TO.N,unconnected-(U4-Pad23)*%
X50795000Y-85095000D03*
%TO.P,U4,24,CS*%
%TO.N,Net-(U2-Pad9)*%
X50795000Y-82555000D03*
%TO.P,U4,25,PLO/SS*%
%TO.N,unconnected-(U4-Pad25)*%
X50795000Y-80015000D03*
%TO.P,U4,26,Data_window*%
%TO.N,unconnected-(U4-Pad26)*%
X50795000Y-77475000D03*
%TO.P,U4,27,UNSEP_Data*%
%TO.N,Net-(U4-Pad27)*%
X50795000Y-74935000D03*
%TO.P,U4,28*%
%TO.N,N/C*%
X50795000Y-72395000D03*
%TO.P,U4,29,Fault*%
%TO.N,Net-(U4-Pad29)*%
X50795000Y-69855000D03*
%TO.P,U4,30,Count/UPI*%
%TO.N,unconnected-(U4-Pad30)*%
X50795000Y-67315000D03*
%TO.P,U4,31,TRK0*%
%TO.N,Net-(U4-Pad31)*%
X50795000Y-64775000D03*
%TO.P,U4,32,READY_0*%
%TO.N,unconnected-(U4-Pad32)*%
X50795000Y-62235000D03*
%TO.P,U4,33,Write_Protect*%
%TO.N,Net-(U4-Pad33)*%
X50795000Y-59695000D03*
%TO.P,U4,34,Index*%
%TO.N,Net-(U4-Pad34)*%
X50795000Y-57155000D03*
%TO.P,U4,35,WR_enable*%
%TO.N,Net-(U4-Pad35)*%
X50795000Y-54615000D03*
%TO.P,U4,36,Seek/step*%
%TO.N,Net-(U4-Pad36)*%
X50795000Y-52075000D03*
%TO.P,U4,37,Direction*%
%TO.N,Net-(U4-Pad37)*%
X50795000Y-49535000D03*
%TO.P,U4,38,Load_hd*%
%TO.N,Net-(U4-Pad38)*%
X50795000Y-46995000D03*
%TO.P,U4,39,Low_Current*%
%TO.N,unconnected-(U4-Pad39)*%
X50795000Y-44455000D03*
%TO.P,U4,40,VDD*%
%TO.N,VCC*%
X50795000Y-41915000D03*
%TD*%
D12*
%TO.P,U2,1,Oe1*%
%TO.N,GND*%
X23860000Y-26660000D03*
D13*
%TO.P,U2,2,Oe2*%
X23860000Y-29200000D03*
%TO.P,U2,3,Q0*%
%TO.N,Net-(U2-Pad3)*%
X23860000Y-31740000D03*
%TO.P,U2,4,Q1*%
%TO.N,Net-(U2-Pad4)*%
X23860000Y-34280000D03*
%TO.P,U2,5,Q2*%
%TO.N,/RESET*%
X23860000Y-36820000D03*
%TO.P,U2,6,Q3*%
%TO.N,Net-(U2-Pad6)*%
X23860000Y-39360000D03*
%TO.P,U2,7,Cp*%
%TO.N,Net-(U1-Pad10)*%
X23860000Y-41900000D03*
%TO.P,U2,8,GND*%
%TO.N,GND*%
X23860000Y-44440000D03*
%TO.P,U2,9,E1*%
%TO.N,Net-(U2-Pad9)*%
X31480000Y-44440000D03*
%TO.P,U2,10,E2*%
%TO.N,Net-(U1-Pad1)*%
X31480000Y-41900000D03*
%TO.P,U2,11,D3*%
%TO.N,/D3*%
X31480000Y-39360000D03*
%TO.P,U2,12,D2*%
%TO.N,/D5*%
X31480000Y-36820000D03*
%TO.P,U2,13,D1*%
%TO.N,/D2*%
X31480000Y-34280000D03*
%TO.P,U2,14,D0*%
%TO.N,/D0*%
X31480000Y-31740000D03*
%TO.P,U2,15,Mr*%
%TO.N,Net-(U2-Pad15)*%
X31480000Y-29200000D03*
%TO.P,U2,16,VCC*%
%TO.N,VCC*%
X31480000Y-26660000D03*
%TD*%
D16*
%TO.P,C3,1*%
%TO.N,VCC*%
X21050000Y-55880000D03*
%TO.P,C3,2*%
%TO.N,GND*%
X21050000Y-50880000D03*
%TD*%
%TO.P,Cc2,1*%
%TO.N,VCC*%
X45720000Y-38220000D03*
%TO.P,Cc2,2*%
%TO.N,GND*%
X40720000Y-38220000D03*
%TD*%
%TO.P,c1,1*%
%TO.N,VCC*%
X22860000Y-20320000D03*
%TO.P,c1,2*%
%TO.N,GND*%
X27860000Y-20320000D03*
%TD*%
D10*
%TO.P,U3,1*%
%TO.N,Net-(U3-Pad1)*%
X35555000Y-34280000D03*
D11*
%TO.P,U3,2*%
%TO.N,Net-(U3-Pad2)*%
X38095000Y-34280000D03*
%TO.P,U3,3*%
X40635000Y-34280000D03*
%TO.P,U3,4*%
X43175000Y-34280000D03*
%TO.P,U3,5*%
%TO.N,Net-(U3-Pad5)*%
X45715000Y-34280000D03*
%TO.P,U3,6*%
%TO.N,Net-(U3-Pad6)*%
X48255000Y-34280000D03*
%TO.P,U3,7*%
%TO.N,GND*%
X50795000Y-34280000D03*
%TO.P,U3,8*%
%TO.N,Net-(U2-Pad3)*%
X50795000Y-26660000D03*
%TO.P,U3,9*%
X48255000Y-26660000D03*
%TO.P,U3,10*%
%TO.N,Net-(U3-Pad10)*%
X45715000Y-26660000D03*
%TO.P,U3,11*%
%TO.N,Net-(U3-Pad11)*%
X43175000Y-26660000D03*
%TO.P,U3,12*%
%TO.N,GND*%
X40635000Y-26660000D03*
%TO.P,U3,13*%
%TO.N,Net-(U1-Pad1)*%
X38095000Y-26660000D03*
%TO.P,U3,14*%
%TO.N,VCC*%
X35555000Y-26660000D03*
%TD*%
D17*
%TO.N,Net-(U4-Pad35)*%
X43410300Y-71125000D02*
X42160300Y-72375000D01*
X51135100Y-71125000D02*
X43410300Y-71125000D01*
X52405600Y-69854500D02*
X51135100Y-71125000D01*
X52405600Y-57069600D02*
X52405600Y-69854500D01*
X51076300Y-55740300D02*
X52405600Y-57069600D01*
X50795000Y-55740300D02*
X51076300Y-55740300D01*
X50795000Y-54615000D02*
X50795000Y-55740300D01*
X40635000Y-72375000D02*
X42160300Y-72375000D01*
%TO.N,Net-(U4-Pad34)*%
X43124800Y-64755000D02*
X40635000Y-64755000D01*
X46980700Y-60899100D02*
X43124800Y-64755000D01*
X51201000Y-60899100D02*
X46980700Y-60899100D01*
X51929200Y-60170900D02*
X51201000Y-60899100D01*
X51929200Y-59133200D02*
X51929200Y-60170900D01*
X51076300Y-58280300D02*
X51929200Y-59133200D01*
X50795000Y-58280300D02*
X51076300Y-58280300D01*
X50795000Y-57155000D02*
X50795000Y-58280300D01*
%TO.N,Net-(U4-Pad33)*%
X43972800Y-62215000D02*
X40635000Y-62215000D01*
X46492800Y-59695000D02*
X43972800Y-62215000D01*
X50795000Y-59695000D02*
X46492800Y-59695000D01*
%TO.N,Net-(U4-Pad31)*%
X47149700Y-67295000D02*
X40635000Y-67295000D01*
X49669700Y-64775000D02*
X47149700Y-67295000D01*
X50795000Y-64775000D02*
X49669700Y-64775000D01*
%TO.N,Net-(U4-Pad29)*%
X42180300Y-69855000D02*
X42160300Y-69835000D01*
X50795000Y-69855000D02*
X42180300Y-69855000D01*
X40635000Y-69835000D02*
X42160300Y-69835000D01*
%TO.N,Net-(U4-Pad27)*%
X44680300Y-74935000D02*
X42160300Y-77455000D01*
X50795000Y-74935000D02*
X44680300Y-74935000D01*
X40635000Y-77455000D02*
X42160300Y-77455000D01*
%TO.N,/A4*%
X27783000Y-62215000D02*
X25395000Y-62215000D01*
X34153000Y-68585000D02*
X27783000Y-62215000D01*
X35895600Y-68585000D02*
X34153000Y-68585000D01*
X38659300Y-71348700D02*
X35895600Y-68585000D01*
X38659300Y-77494200D02*
X38659300Y-71348700D01*
X39890100Y-78725000D02*
X38659300Y-77494200D01*
X41375100Y-78725000D02*
X39890100Y-78725000D01*
X49669700Y-87019600D02*
X41375100Y-78725000D01*
X49669700Y-87635000D02*
X49669700Y-87019600D01*
X50795000Y-87635000D02*
X49669700Y-87635000D01*
%TO.N,/A3*%
X23869700Y-65231000D02*
X23869700Y-59675000D01*
X24663700Y-66025000D02*
X23869700Y-65231000D01*
X28265000Y-66025000D02*
X24663700Y-66025000D01*
X33509600Y-71269600D02*
X28265000Y-66025000D01*
X36025200Y-71269600D02*
X33509600Y-71269600D01*
X38208900Y-73453300D02*
X36025200Y-71269600D01*
X38208900Y-79571400D02*
X38208900Y-73453300D01*
X39902500Y-81265000D02*
X38208900Y-79571400D01*
X41375100Y-81265000D02*
X39902500Y-81265000D01*
X49669700Y-89559600D02*
X41375100Y-81265000D01*
X49669700Y-90175000D02*
X49669700Y-89559600D01*
X50795000Y-90175000D02*
X49669700Y-90175000D01*
X25395000Y-59675000D02*
X23869700Y-59675000D01*
%TO.N,/D7*%
X29329700Y-82535000D02*
X25395000Y-82535000D01*
X34429700Y-87635000D02*
X29329700Y-82535000D01*
X35555000Y-87635000D02*
X34429700Y-87635000D01*
%TO.N,/D6*%
X29329700Y-79995000D02*
X25395000Y-79995000D01*
X34429700Y-85095000D02*
X29329700Y-79995000D01*
X35555000Y-85095000D02*
X34429700Y-85095000D01*
%TO.N,/D1*%
X25395000Y-67295000D02*
X26920300Y-67295000D01*
X32020300Y-72395000D02*
X26920300Y-67295000D01*
X35555000Y-72395000D02*
X32020300Y-72395000D01*
%TO.N,Net-(U3-Pad6)*%
X40635000Y-54595000D02*
X42160300Y-54595000D01*
X48255000Y-48500300D02*
X42160300Y-54595000D01*
X48255000Y-34280000D02*
X48255000Y-48500300D01*
%TO.N,Net-(U3-Pad2)*%
X43175000Y-34280000D02*
X40635000Y-34280000D01*
X40635000Y-34280000D02*
X38095000Y-34280000D01*
%TO.N,/D0*%
X35555000Y-69855000D02*
X34429700Y-69855000D01*
X29329700Y-64755000D02*
X34429700Y-69855000D01*
X25395000Y-64755000D02*
X29329700Y-64755000D01*
%TO.N,/D2*%
X32020300Y-74935000D02*
X35555000Y-74935000D01*
X26920300Y-69835000D02*
X32020300Y-74935000D01*
X25395000Y-69835000D02*
X26920300Y-69835000D01*
%TO.N,/D5*%
X29329700Y-77455000D02*
X25395000Y-77455000D01*
X34429700Y-82555000D02*
X29329700Y-77455000D01*
X35555000Y-82555000D02*
X34429700Y-82555000D01*
%TO.N,Net-(U2-Pad6)*%
X39109700Y-56509500D02*
X39109700Y-59675000D01*
X35945200Y-53345000D02*
X39109700Y-56509500D01*
X35210000Y-53345000D02*
X35945200Y-53345000D01*
X33929900Y-52064900D02*
X35210000Y-53345000D01*
X33929900Y-49429900D02*
X33929900Y-52064900D01*
X25385300Y-40885300D02*
X33929900Y-49429900D01*
X25385300Y-39360000D02*
X25385300Y-40885300D01*
X23860000Y-39360000D02*
X25385300Y-39360000D01*
X40635000Y-59675000D02*
X39109700Y-59675000D01*
%TO.N,Net-(U2-Pad4)*%
X33144700Y-40630000D02*
X34429700Y-41915000D01*
X30697900Y-40630000D02*
X33144700Y-40630000D01*
X25385300Y-35317400D02*
X30697900Y-40630000D01*
X25385300Y-34280000D02*
X25385300Y-35317400D01*
X23860000Y-34280000D02*
X25385300Y-34280000D01*
X35555000Y-41915000D02*
X34429700Y-41915000D01*
%TO.N,Net-(U2-Pad3)*%
X23860000Y-31740000D02*
X25385300Y-31740000D01*
X35555000Y-44455000D02*
X35555000Y-43329700D01*
X50795000Y-26660000D02*
X48255000Y-26660000D01*
X45600100Y-39995900D02*
X36680300Y-39995900D01*
X47122300Y-38473700D02*
X45600100Y-39995900D01*
X47122300Y-29318000D02*
X47122300Y-38473700D01*
X48255000Y-28185300D02*
X47122300Y-29318000D01*
X32234400Y-35550000D02*
X36680300Y-39995900D01*
X29195300Y-35550000D02*
X32234400Y-35550000D01*
X25385300Y-31740000D02*
X29195300Y-35550000D01*
X36258400Y-43329700D02*
X35555000Y-43329700D01*
X36680300Y-42907800D02*
X36258400Y-43329700D01*
X36680300Y-39995900D02*
X36680300Y-42907800D01*
X48255000Y-26660000D02*
X48255000Y-28185300D01*
%TO.N,Net-(U1-Pad10)*%
X23860000Y-41900000D02*
X23426500Y-41900000D01*
X35555000Y-64775000D02*
X35555000Y-63649700D01*
X33053400Y-51526900D02*
X23426500Y-41900000D01*
X33053400Y-61429400D02*
X33053400Y-51526900D01*
X35273700Y-63649700D02*
X33053400Y-61429400D01*
X35555000Y-63649700D02*
X35273700Y-63649700D01*
X40635000Y-13960000D02*
X40635000Y-15288200D01*
X22323700Y-40797200D02*
X23426500Y-41900000D01*
X22323700Y-24220600D02*
X22323700Y-40797200D01*
X31059000Y-15485300D02*
X22323700Y-24220600D01*
X40437900Y-15485300D02*
X31059000Y-15485300D01*
X40635000Y-15288200D02*
X40437900Y-15485300D01*
%TO.N,/WR*%
X49303600Y-23105300D02*
X48255000Y-23105300D01*
X51924000Y-25725700D02*
X49303600Y-23105300D01*
X51924000Y-27895500D02*
X51924000Y-25725700D01*
X49669600Y-30149900D02*
X51924000Y-27895500D01*
X49669600Y-52698300D02*
X49669600Y-30149900D01*
X41422900Y-60945000D02*
X49669600Y-52698300D01*
X39865400Y-60945000D02*
X41422900Y-60945000D01*
X36680400Y-64130000D02*
X39865400Y-60945000D01*
X36680400Y-65254100D02*
X36680400Y-64130000D01*
X35988400Y-65946100D02*
X36680400Y-65254100D01*
X35064100Y-65946100D02*
X35988400Y-65946100D01*
X26920300Y-57802300D02*
X35064100Y-65946100D01*
X26920300Y-57135000D02*
X26920300Y-57802300D01*
X25395000Y-57135000D02*
X26920300Y-57135000D01*
X48255000Y-21580000D02*
X48255000Y-23105300D01*
%TO.N,Net-(U1-Pad5)*%
X46225600Y-20054700D02*
X45715000Y-20054700D01*
X50795000Y-15485300D02*
X46225600Y-20054700D01*
X50795000Y-13960000D02*
X50795000Y-15485300D01*
X45715000Y-21580000D02*
X45715000Y-20054700D01*
%TO.N,Net-(U1-Pad11)*%
X38605600Y-20054700D02*
X38095000Y-20054700D01*
X43175000Y-15485300D02*
X38605600Y-20054700D01*
X43175000Y-13960000D02*
X43175000Y-15485300D01*
X38095000Y-21580000D02*
X38095000Y-20054700D01*
%TO.N,Net-(U1-Pad1)*%
X36065600Y-23105300D02*
X35555000Y-23105300D01*
X38095000Y-25134700D02*
X36065600Y-23105300D01*
X38095000Y-26660000D02*
X38095000Y-25134700D01*
X35555000Y-21580000D02*
X35555000Y-23105300D01*
%TO.N,GND*%
X31869700Y-87615000D02*
X25395000Y-87615000D01*
X34429700Y-90175000D02*
X31869700Y-87615000D01*
X35555000Y-90175000D02*
X34429700Y-90175000D01*
X23860000Y-48070000D02*
X21050000Y-50880000D01*
X23860000Y-44440000D02*
X23860000Y-48070000D01*
X19916500Y-83661800D02*
X23869700Y-87615000D01*
X19916500Y-52013500D02*
X19916500Y-83661800D01*
X21050000Y-50880000D02*
X19916500Y-52013500D01*
X25395000Y-87615000D02*
X23869700Y-87615000D01*
X28125500Y-20054500D02*
X27860000Y-20320000D01*
X36551700Y-20054500D02*
X28125500Y-20054500D01*
X36680600Y-20183400D02*
X36551700Y-20054500D01*
X36680600Y-22228900D02*
X36680600Y-20183400D01*
X39586400Y-25134700D02*
X36680600Y-22228900D01*
X40635000Y-25134700D02*
X39586400Y-25134700D01*
X40635000Y-26660000D02*
X40635000Y-25134700D01*
X36960400Y-38220000D02*
X40720000Y-38220000D01*
X33453900Y-34713500D02*
X36960400Y-38220000D01*
X33453900Y-34217000D02*
X33453900Y-34713500D01*
X32391600Y-33154700D02*
X33453900Y-34217000D01*
X29340000Y-33154700D02*
X32391600Y-33154700D01*
X25385300Y-29200000D02*
X29340000Y-33154700D01*
X23860000Y-29200000D02*
X25385300Y-29200000D01*
%TO.N,VCC*%
X36680400Y-85185700D02*
X39109700Y-87615000D01*
X36680400Y-74456300D02*
X36680400Y-85185700D01*
X35889100Y-73665000D02*
X36680400Y-74456300D01*
X31387200Y-73665000D02*
X35889100Y-73665000D01*
X26142600Y-68420400D02*
X31387200Y-73665000D01*
X24502700Y-68420400D02*
X26142600Y-68420400D01*
X21050000Y-64967700D02*
X24502700Y-68420400D01*
X21050000Y-55880000D02*
X21050000Y-64967700D01*
X40635000Y-87615000D02*
X39109700Y-87615000D01*
X35555000Y-26660000D02*
X35555000Y-27422600D01*
X31480000Y-26660000D02*
X33005300Y-26660000D01*
X33767900Y-27422600D02*
X33005300Y-26660000D01*
X35555000Y-27422600D02*
X33767900Y-27422600D01*
X36448500Y-28316100D02*
X35555000Y-27422600D01*
X39233300Y-28316100D02*
X36448500Y-28316100D01*
X44445000Y-33527800D02*
X39233300Y-28316100D01*
X44445000Y-36945000D02*
X44445000Y-33527800D01*
X45720000Y-38220000D02*
X44445000Y-36945000D01*
%TD*%
M02*
