%TF.GenerationSoftware,KiCad,Pcbnew,(6.0.10)*%
%TF.CreationDate,2022-12-23T07:28:00+11:00*%
%TF.ProjectId,bbc1770,62626331-3737-4302-9e6b-696361645f70,rev?*%
%TF.SameCoordinates,Original*%
%TF.FileFunction,Legend,Top*%
%TF.FilePolarity,Positive*%
%FSLAX46Y46*%
G04 Gerber Fmt 4.6, Leading zero omitted, Abs format (unit mm)*
G04 Created by KiCad (PCBNEW (6.0.10)) date 2022-12-23 07:28:00*
%MOMM*%
%LPD*%
G01*
G04 APERTURE LIST*
%ADD10C,0.150000*%
%ADD11C,0.120000*%
G04 APERTURE END LIST*
D10*
%TO.C,U1*%
X32677380Y-18531904D02*
X33486904Y-18531904D01*
X33582142Y-18484285D01*
X33629761Y-18436666D01*
X33677380Y-18341428D01*
X33677380Y-18150952D01*
X33629761Y-18055714D01*
X33582142Y-18008095D01*
X33486904Y-17960476D01*
X32677380Y-17960476D01*
X33677380Y-16960476D02*
X33677380Y-17531904D01*
X33677380Y-17246190D02*
X32677380Y-17246190D01*
X32820238Y-17341428D01*
X32915476Y-17436666D01*
X32963095Y-17531904D01*
%TO.C,U5*%
X32253095Y-51717380D02*
X32253095Y-52526904D01*
X32300714Y-52622142D01*
X32348333Y-52669761D01*
X32443571Y-52717380D01*
X32634047Y-52717380D01*
X32729285Y-52669761D01*
X32776904Y-52622142D01*
X32824523Y-52526904D01*
X32824523Y-51717380D01*
X33776904Y-51717380D02*
X33300714Y-51717380D01*
X33253095Y-52193571D01*
X33300714Y-52145952D01*
X33395952Y-52098333D01*
X33634047Y-52098333D01*
X33729285Y-52145952D01*
X33776904Y-52193571D01*
X33824523Y-52288809D01*
X33824523Y-52526904D01*
X33776904Y-52622142D01*
X33729285Y-52669761D01*
X33634047Y-52717380D01*
X33395952Y-52717380D01*
X33300714Y-52669761D01*
X33253095Y-52622142D01*
%TO.C,U4*%
X42413095Y-39037380D02*
X42413095Y-39846904D01*
X42460714Y-39942142D01*
X42508333Y-39989761D01*
X42603571Y-40037380D01*
X42794047Y-40037380D01*
X42889285Y-39989761D01*
X42936904Y-39942142D01*
X42984523Y-39846904D01*
X42984523Y-39037380D01*
X43889285Y-39370714D02*
X43889285Y-40037380D01*
X43651190Y-38989761D02*
X43413095Y-39704047D01*
X44032142Y-39704047D01*
%TO.C,U2*%
X26908095Y-23782380D02*
X26908095Y-24591904D01*
X26955714Y-24687142D01*
X27003333Y-24734761D01*
X27098571Y-24782380D01*
X27289047Y-24782380D01*
X27384285Y-24734761D01*
X27431904Y-24687142D01*
X27479523Y-24591904D01*
X27479523Y-23782380D01*
X27908095Y-23877619D02*
X27955714Y-23830000D01*
X28050952Y-23782380D01*
X28289047Y-23782380D01*
X28384285Y-23830000D01*
X28431904Y-23877619D01*
X28479523Y-23972857D01*
X28479523Y-24068095D01*
X28431904Y-24210952D01*
X27860476Y-24782380D01*
X28479523Y-24782380D01*
%TO.C,C3*%
X18907142Y-53546666D02*
X18954761Y-53594285D01*
X19002380Y-53737142D01*
X19002380Y-53832380D01*
X18954761Y-53975238D01*
X18859523Y-54070476D01*
X18764285Y-54118095D01*
X18573809Y-54165714D01*
X18430952Y-54165714D01*
X18240476Y-54118095D01*
X18145238Y-54070476D01*
X18050000Y-53975238D01*
X18002380Y-53832380D01*
X18002380Y-53737142D01*
X18050000Y-53594285D01*
X18097619Y-53546666D01*
X18002380Y-53213333D02*
X18002380Y-52594285D01*
X18383333Y-52927619D01*
X18383333Y-52784761D01*
X18430952Y-52689523D01*
X18478571Y-52641904D01*
X18573809Y-52594285D01*
X18811904Y-52594285D01*
X18907142Y-52641904D01*
X18954761Y-52689523D01*
X19002380Y-52784761D01*
X19002380Y-53070476D01*
X18954761Y-53165714D01*
X18907142Y-53213333D01*
%TO.C,Cc2*%
X42624761Y-41077142D02*
X42577142Y-41124761D01*
X42434285Y-41172380D01*
X42339047Y-41172380D01*
X42196190Y-41124761D01*
X42100952Y-41029523D01*
X42053333Y-40934285D01*
X42005714Y-40743809D01*
X42005714Y-40600952D01*
X42053333Y-40410476D01*
X42100952Y-40315238D01*
X42196190Y-40220000D01*
X42339047Y-40172380D01*
X42434285Y-40172380D01*
X42577142Y-40220000D01*
X42624761Y-40267619D01*
X43481904Y-41124761D02*
X43386666Y-41172380D01*
X43196190Y-41172380D01*
X43100952Y-41124761D01*
X43053333Y-41077142D01*
X43005714Y-40981904D01*
X43005714Y-40696190D01*
X43053333Y-40600952D01*
X43100952Y-40553333D01*
X43196190Y-40505714D01*
X43386666Y-40505714D01*
X43481904Y-40553333D01*
X43862857Y-40267619D02*
X43910476Y-40220000D01*
X44005714Y-40172380D01*
X44243809Y-40172380D01*
X44339047Y-40220000D01*
X44386666Y-40267619D01*
X44434285Y-40362857D01*
X44434285Y-40458095D01*
X44386666Y-40600952D01*
X43815238Y-41172380D01*
X44434285Y-41172380D01*
%TO.C,c1*%
X25121904Y-18224761D02*
X25026666Y-18272380D01*
X24836190Y-18272380D01*
X24740952Y-18224761D01*
X24693333Y-18177142D01*
X24645714Y-18081904D01*
X24645714Y-17796190D01*
X24693333Y-17700952D01*
X24740952Y-17653333D01*
X24836190Y-17605714D01*
X25026666Y-17605714D01*
X25121904Y-17653333D01*
X26074285Y-18272380D02*
X25502857Y-18272380D01*
X25788571Y-18272380D02*
X25788571Y-17272380D01*
X25693333Y-17415238D01*
X25598095Y-17510476D01*
X25502857Y-17558095D01*
%TO.C,U3*%
X32677380Y-31231904D02*
X33486904Y-31231904D01*
X33582142Y-31184285D01*
X33629761Y-31136666D01*
X33677380Y-31041428D01*
X33677380Y-30850952D01*
X33629761Y-30755714D01*
X33582142Y-30708095D01*
X33486904Y-30660476D01*
X32677380Y-30660476D01*
X32677380Y-30279523D02*
X32677380Y-29660476D01*
X33058333Y-29993809D01*
X33058333Y-29850952D01*
X33105952Y-29755714D01*
X33153571Y-29708095D01*
X33248809Y-29660476D01*
X33486904Y-29660476D01*
X33582142Y-29708095D01*
X33629761Y-29755714D01*
X33677380Y-29850952D01*
X33677380Y-30136666D01*
X33629761Y-30231904D01*
X33582142Y-30279523D01*
D11*
%TO.C,U1*%
X34165000Y-12520000D02*
X34165000Y-23020000D01*
X52125000Y-15520000D02*
X34225000Y-15520000D01*
X34225000Y-18770000D02*
X34225000Y-20020000D01*
X52185000Y-23020000D02*
X52185000Y-12520000D01*
X34225000Y-20020000D02*
X52125000Y-20020000D01*
X52185000Y-12520000D02*
X34165000Y-12520000D01*
X34165000Y-23020000D02*
X52185000Y-23020000D01*
X52125000Y-20020000D02*
X52125000Y-15520000D01*
X34225000Y-15520000D02*
X34225000Y-16770000D01*
X34225000Y-18770000D02*
G75*
G03*
X34225000Y-16770000I0J1000000D01*
G01*
%TO.C,U5*%
X23955000Y-89005000D02*
X42075000Y-89005000D01*
X26955000Y-53265000D02*
X26955000Y-88945000D01*
X42075000Y-89005000D02*
X42075000Y-53205000D01*
X39075000Y-53265000D02*
X34015000Y-53265000D01*
X23955000Y-53205000D02*
X23955000Y-89005000D01*
X39075000Y-88945000D02*
X39075000Y-53265000D01*
X26955000Y-88945000D02*
X39075000Y-88945000D01*
X32015000Y-53265000D02*
X26955000Y-53265000D01*
X42075000Y-53205000D02*
X23955000Y-53205000D01*
X32015000Y-53265000D02*
G75*
G03*
X34015000Y-53265000I1000000J0D01*
G01*
%TO.C,U4*%
X42175000Y-40585000D02*
X36715000Y-40585000D01*
X49635000Y-40585000D02*
X44175000Y-40585000D01*
X36715000Y-40585000D02*
X36715000Y-91505000D01*
X49635000Y-91505000D02*
X49635000Y-40585000D01*
X36715000Y-91505000D02*
X49635000Y-91505000D01*
X42175000Y-40585000D02*
G75*
G03*
X44175000Y-40585000I1000000J0D01*
G01*
%TO.C,U2*%
X29920000Y-25330000D02*
X28670000Y-25330000D01*
X22420000Y-45830000D02*
X32920000Y-45830000D01*
X25420000Y-25330000D02*
X25420000Y-45770000D01*
X32920000Y-45830000D02*
X32920000Y-25270000D01*
X22420000Y-25270000D02*
X22420000Y-45830000D01*
X32920000Y-25270000D02*
X22420000Y-25270000D01*
X29920000Y-45770000D02*
X29920000Y-25330000D01*
X26670000Y-25330000D02*
X25420000Y-25330000D01*
X25420000Y-45770000D02*
X29920000Y-45770000D01*
X26670000Y-25330000D02*
G75*
G03*
X28670000Y-25330000I1000000J0D01*
G01*
%TO.C,C3*%
X21975000Y-56500000D02*
X22420000Y-56500000D01*
X19680000Y-50260000D02*
X20125000Y-50260000D01*
X22420000Y-56500000D02*
X22420000Y-50260000D01*
X19680000Y-56500000D02*
X19680000Y-50260000D01*
X21975000Y-50260000D02*
X22420000Y-50260000D01*
X19680000Y-56500000D02*
X20125000Y-56500000D01*
%TO.C,Cc2*%
X46340000Y-39590000D02*
X40100000Y-39590000D01*
X46340000Y-37295000D02*
X46340000Y-36850000D01*
X46340000Y-36850000D02*
X40100000Y-36850000D01*
X46340000Y-39590000D02*
X46340000Y-39145000D01*
X40100000Y-37295000D02*
X40100000Y-36850000D01*
X40100000Y-39590000D02*
X40100000Y-39145000D01*
%TO.C,c1*%
X28480000Y-21245000D02*
X28480000Y-21690000D01*
X22240000Y-18950000D02*
X28480000Y-18950000D01*
X22240000Y-18950000D02*
X22240000Y-19395000D01*
X22240000Y-21245000D02*
X22240000Y-21690000D01*
X28480000Y-18950000D02*
X28480000Y-19395000D01*
X22240000Y-21690000D02*
X28480000Y-21690000D01*
%TO.C,U3*%
X34165000Y-25220000D02*
X34165000Y-35720000D01*
X52125000Y-32720000D02*
X52125000Y-28220000D01*
X34165000Y-35720000D02*
X52185000Y-35720000D01*
X34225000Y-32720000D02*
X52125000Y-32720000D01*
X34225000Y-31470000D02*
X34225000Y-32720000D01*
X52125000Y-28220000D02*
X34225000Y-28220000D01*
X52185000Y-25220000D02*
X34165000Y-25220000D01*
X52185000Y-35720000D02*
X52185000Y-25220000D01*
X34225000Y-28220000D02*
X34225000Y-29470000D01*
X34225000Y-31470000D02*
G75*
G03*
X34225000Y-29470000I0J1000000D01*
G01*
%TD*%
M02*
