%TF.GenerationSoftware,KiCad,Pcbnew,(6.0.10)*%
%TF.CreationDate,2022-12-23T07:28:00+11:00*%
%TF.ProjectId,bbc1770,62626331-3737-4302-9e6b-696361645f70,rev?*%
%TF.SameCoordinates,Original*%
%TF.FileFunction,Copper,L1,Top*%
%TF.FilePolarity,Positive*%
%FSLAX46Y46*%
G04 Gerber Fmt 4.6, Leading zero omitted, Abs format (unit mm)*
G04 Created by KiCad (PCBNEW (6.0.10)) date 2022-12-23 07:28:00*
%MOMM*%
%LPD*%
G01*
G04 APERTURE LIST*
%TA.AperFunction,ComponentPad*%
%ADD10R,1.600000X2.400000*%
%TD*%
%TA.AperFunction,ComponentPad*%
%ADD11O,1.600000X2.400000*%
%TD*%
%TA.AperFunction,ComponentPad*%
%ADD12R,2.400000X1.600000*%
%TD*%
%TA.AperFunction,ComponentPad*%
%ADD13O,2.400000X1.600000*%
%TD*%
%TA.AperFunction,ComponentPad*%
%ADD14R,1.600000X1.600000*%
%TD*%
%TA.AperFunction,ComponentPad*%
%ADD15O,1.600000X1.600000*%
%TD*%
%TA.AperFunction,ComponentPad*%
%ADD16C,1.600000*%
%TD*%
%TA.AperFunction,Conductor*%
%ADD17C,0.250000*%
%TD*%
G04 APERTURE END LIST*
D10*
%TO.P,U1,1*%
%TO.N,Net-(U1-Pad1)*%
X35555000Y-21580000D03*
D11*
%TO.P,U1,2*%
%TO.N,Net-(U1-Pad11)*%
X38095000Y-21580000D03*
%TO.P,U1,3*%
%TO.N,Net-(U1-Pad3)*%
X40635000Y-21580000D03*
%TO.P,U1,4*%
%TO.N,Net-(U1-Pad13)*%
X43175000Y-21580000D03*
%TO.P,U1,5*%
%TO.N,Net-(U1-Pad5)*%
X45715000Y-21580000D03*
%TO.P,U1,6*%
%TO.N,/WR*%
X48255000Y-21580000D03*
%TO.P,U1,7*%
%TO.N,GND*%
X50795000Y-21580000D03*
%TO.P,U1,8*%
%TO.N,Net-(U1-Pad5)*%
X50795000Y-13960000D03*
%TO.P,U1,9*%
%TO.N,/WR*%
X48255000Y-13960000D03*
%TO.P,U1,10*%
%TO.N,Net-(U1-Pad10)*%
X45715000Y-13960000D03*
%TO.P,U1,11*%
%TO.N,Net-(U1-Pad11)*%
X43175000Y-13960000D03*
%TO.P,U1,12*%
%TO.N,Net-(U1-Pad10)*%
X40635000Y-13960000D03*
%TO.P,U1,13*%
%TO.N,Net-(U1-Pad13)*%
X38095000Y-13960000D03*
%TO.P,U1,14*%
%TO.N,VCC*%
X35555000Y-13960000D03*
%TD*%
D12*
%TO.P,U5,1,~{CS}*%
%TO.N,Net-(U1-Pad3)*%
X25395000Y-54595000D03*
D13*
%TO.P,U5,2,R/~{W}*%
%TO.N,/WR*%
X25395000Y-57135000D03*
%TO.P,U5,3,A0*%
%TO.N,/A3*%
X25395000Y-59675000D03*
%TO.P,U5,4,A1*%
%TO.N,/A4*%
X25395000Y-62215000D03*
%TO.P,U5,5,DI0*%
%TO.N,/D0*%
X25395000Y-64755000D03*
%TO.P,U5,6,DI1*%
%TO.N,/D1*%
X25395000Y-67295000D03*
%TO.P,U5,7,DI2*%
%TO.N,/D2*%
X25395000Y-69835000D03*
%TO.P,U5,8,DI3*%
%TO.N,/D3*%
X25395000Y-72375000D03*
%TO.P,U5,9,DI4*%
%TO.N,/D4*%
X25395000Y-74915000D03*
%TO.P,U5,10,DI5*%
%TO.N,/D5*%
X25395000Y-77455000D03*
%TO.P,U5,11,DI6*%
%TO.N,/D6*%
X25395000Y-79995000D03*
%TO.P,U5,12,DI7*%
%TO.N,/D7*%
X25395000Y-82535000D03*
%TO.P,U5,13,~{MR}*%
%TO.N,/RESET*%
X25395000Y-85075000D03*
%TO.P,U5,14,GND*%
%TO.N,GND*%
X25395000Y-87615000D03*
%TO.P,U5,15,VCC*%
%TO.N,VCC*%
X40635000Y-87615000D03*
%TO.P,U5,16,STEP*%
%TO.N,Net-(U4-Pad36)*%
X40635000Y-85075000D03*
%TO.P,U5,17,DIRC*%
%TO.N,Net-(U4-Pad37)*%
X40635000Y-82535000D03*
%TO.P,U5,18,CLK*%
%TO.N,Net-(U4-Pad3)*%
X40635000Y-79995000D03*
%TO.P,U5,19,~{RD}*%
%TO.N,Net-(U4-Pad27)*%
X40635000Y-77455000D03*
%TO.P,U5,20,MOTOR*%
%TO.N,Net-(U4-Pad38)*%
X40635000Y-74915000D03*
%TO.P,U5,21,WG*%
%TO.N,Net-(U4-Pad35)*%
X40635000Y-72375000D03*
%TO.P,U5,22,WD*%
%TO.N,Net-(U4-Pad29)*%
X40635000Y-69835000D03*
%TO.P,U5,23,~{TR00}*%
%TO.N,Net-(U4-Pad31)*%
X40635000Y-67295000D03*
%TO.P,U5,24,~{IP}*%
%TO.N,Net-(U4-Pad34)*%
X40635000Y-64755000D03*
%TO.P,U5,25,~{WPRT}*%
%TO.N,Net-(U4-Pad33)*%
X40635000Y-62215000D03*
%TO.P,U5,26,~{DDEN}*%
%TO.N,Net-(U2-Pad6)*%
X40635000Y-59675000D03*
%TO.P,U5,27,DRQ*%
%TO.N,Net-(U3-Pad5)*%
X40635000Y-57135000D03*
%TO.P,U5,28,INTRQ*%
%TO.N,Net-(U3-Pad6)*%
X40635000Y-54595000D03*
%TD*%
D14*
%TO.P,U4,1,Fault_Reset*%
%TO.N,Net-(U2-Pad4)*%
X35555000Y-41915000D03*
D15*
%TO.P,U4,2,Select_0*%
%TO.N,Net-(U2-Pad3)*%
X35555000Y-44455000D03*
%TO.P,U4,3,4Mhz_clk*%
%TO.N,Net-(U4-Pad3)*%
X35555000Y-46995000D03*
%TO.P,U4,4,RESET*%
%TO.N,Net-(U2-Pad15)*%
X35555000Y-49535000D03*
%TO.P,U4,5,Ready_1*%
%TO.N,unconnected-(U4-Pad5)*%
X35555000Y-52075000D03*
%TO.P,U4,6,Select_1*%
%TO.N,Net-(U3-Pad10)*%
X35555000Y-54615000D03*
%TO.P,U4,7,DACK*%
%TO.N,Net-(U3-Pad11)*%
X35555000Y-57155000D03*
%TO.P,U4,8,DRQ*%
%TO.N,unconnected-(U4-Pad8)*%
X35555000Y-59695000D03*
%TO.P,U4,9,~{RD}*%
%TO.N,Net-(U1-Pad13)*%
X35555000Y-62235000D03*
%TO.P,U4,10,WR*%
%TO.N,Net-(U1-Pad10)*%
X35555000Y-64775000D03*
%TO.P,U4,11,INT*%
%TO.N,Net-(U3-Pad1)*%
X35555000Y-67315000D03*
%TO.P,U4,12,DB0*%
%TO.N,/D0*%
X35555000Y-69855000D03*
%TO.P,U4,13,DB1*%
%TO.N,/D1*%
X35555000Y-72395000D03*
%TO.P,U4,14,DB2*%
%TO.N,/D2*%
X35555000Y-74935000D03*
%TO.P,U4,15,DB3*%
%TO.N,/D3*%
X35555000Y-77475000D03*
%TO.P,U4,16,DB4*%
%TO.N,/D4*%
X35555000Y-80015000D03*
%TO.P,U4,17,DB5*%
%TO.N,/D5*%
X35555000Y-82555000D03*
%TO.P,U4,18,DB6*%
%TO.N,/D6*%
X35555000Y-85095000D03*
%TO.P,U4,19,DB7*%
%TO.N,/D7*%
X35555000Y-87635000D03*
%TO.P,U4,20,GND*%
%TO.N,GND*%
X35555000Y-90175000D03*
%TO.P,U4,21,A0*%
%TO.N,/A3*%
X50795000Y-90175000D03*
%TO.P,U4,22,A1*%
%TO.N,/A4*%
X50795000Y-87635000D03*
%TO.P,U4,23,1NSYNC*%
%TO.N,unconnected-(U4-Pad23)*%
X50795000Y-85095000D03*
%TO.P,U4,24,CS*%
%TO.N,Net-(U2-Pad9)*%
X50795000Y-82555000D03*
%TO.P,U4,25,PLO/SS*%
%TO.N,unconnected-(U4-Pad25)*%
X50795000Y-80015000D03*
%TO.P,U4,26,Data_window*%
%TO.N,unconnected-(U4-Pad26)*%
X50795000Y-77475000D03*
%TO.P,U4,27,UNSEP_Data*%
%TO.N,Net-(U4-Pad27)*%
X50795000Y-74935000D03*
%TO.P,U4,28*%
%TO.N,N/C*%
X50795000Y-72395000D03*
%TO.P,U4,29,Fault*%
%TO.N,Net-(U4-Pad29)*%
X50795000Y-69855000D03*
%TO.P,U4,30,Count/UPI*%
%TO.N,unconnected-(U4-Pad30)*%
X50795000Y-67315000D03*
%TO.P,U4,31,TRK0*%
%TO.N,Net-(U4-Pad31)*%
X50795000Y-64775000D03*
%TO.P,U4,32,READY_0*%
%TO.N,unconnected-(U4-Pad32)*%
X50795000Y-62235000D03*
%TO.P,U4,33,Write_Protect*%
%TO.N,Net-(U4-Pad33)*%
X50795000Y-59695000D03*
%TO.P,U4,34,Index*%
%TO.N,Net-(U4-Pad34)*%
X50795000Y-57155000D03*
%TO.P,U4,35,WR_enable*%
%TO.N,Net-(U4-Pad35)*%
X50795000Y-54615000D03*
%TO.P,U4,36,Seek/step*%
%TO.N,Net-(U4-Pad36)*%
X50795000Y-52075000D03*
%TO.P,U4,37,Direction*%
%TO.N,Net-(U4-Pad37)*%
X50795000Y-49535000D03*
%TO.P,U4,38,Load_hd*%
%TO.N,Net-(U4-Pad38)*%
X50795000Y-46995000D03*
%TO.P,U4,39,Low_Current*%
%TO.N,unconnected-(U4-Pad39)*%
X50795000Y-44455000D03*
%TO.P,U4,40,VDD*%
%TO.N,VCC*%
X50795000Y-41915000D03*
%TD*%
D12*
%TO.P,U2,1,Oe1*%
%TO.N,GND*%
X23860000Y-26660000D03*
D13*
%TO.P,U2,2,Oe2*%
X23860000Y-29200000D03*
%TO.P,U2,3,Q0*%
%TO.N,Net-(U2-Pad3)*%
X23860000Y-31740000D03*
%TO.P,U2,4,Q1*%
%TO.N,Net-(U2-Pad4)*%
X23860000Y-34280000D03*
%TO.P,U2,5,Q2*%
%TO.N,/RESET*%
X23860000Y-36820000D03*
%TO.P,U2,6,Q3*%
%TO.N,Net-(U2-Pad6)*%
X23860000Y-39360000D03*
%TO.P,U2,7,Cp*%
%TO.N,Net-(U1-Pad10)*%
X23860000Y-41900000D03*
%TO.P,U2,8,GND*%
%TO.N,GND*%
X23860000Y-44440000D03*
%TO.P,U2,9,E1*%
%TO.N,Net-(U2-Pad9)*%
X31480000Y-44440000D03*
%TO.P,U2,10,E2*%
%TO.N,Net-(U1-Pad1)*%
X31480000Y-41900000D03*
%TO.P,U2,11,D3*%
%TO.N,/D3*%
X31480000Y-39360000D03*
%TO.P,U2,12,D2*%
%TO.N,/D5*%
X31480000Y-36820000D03*
%TO.P,U2,13,D1*%
%TO.N,/D2*%
X31480000Y-34280000D03*
%TO.P,U2,14,D0*%
%TO.N,/D0*%
X31480000Y-31740000D03*
%TO.P,U2,15,Mr*%
%TO.N,Net-(U2-Pad15)*%
X31480000Y-29200000D03*
%TO.P,U2,16,VCC*%
%TO.N,VCC*%
X31480000Y-26660000D03*
%TD*%
D16*
%TO.P,C3,1*%
%TO.N,VCC*%
X21050000Y-55880000D03*
%TO.P,C3,2*%
%TO.N,GND*%
X21050000Y-50880000D03*
%TD*%
%TO.P,Cc2,1*%
%TO.N,VCC*%
X45720000Y-38220000D03*
%TO.P,Cc2,2*%
%TO.N,GND*%
X40720000Y-38220000D03*
%TD*%
%TO.P,c1,1*%
%TO.N,VCC*%
X22860000Y-20320000D03*
%TO.P,c1,2*%
%TO.N,GND*%
X27860000Y-20320000D03*
%TD*%
D10*
%TO.P,U3,1*%
%TO.N,Net-(U3-Pad1)*%
X35555000Y-34280000D03*
D11*
%TO.P,U3,2*%
%TO.N,Net-(U3-Pad2)*%
X38095000Y-34280000D03*
%TO.P,U3,3*%
X40635000Y-34280000D03*
%TO.P,U3,4*%
X43175000Y-34280000D03*
%TO.P,U3,5*%
%TO.N,Net-(U3-Pad5)*%
X45715000Y-34280000D03*
%TO.P,U3,6*%
%TO.N,Net-(U3-Pad6)*%
X48255000Y-34280000D03*
%TO.P,U3,7*%
%TO.N,GND*%
X50795000Y-34280000D03*
%TO.P,U3,8*%
%TO.N,Net-(U2-Pad3)*%
X50795000Y-26660000D03*
%TO.P,U3,9*%
X48255000Y-26660000D03*
%TO.P,U3,10*%
%TO.N,Net-(U3-Pad10)*%
X45715000Y-26660000D03*
%TO.P,U3,11*%
%TO.N,Net-(U3-Pad11)*%
X43175000Y-26660000D03*
%TO.P,U3,12*%
%TO.N,GND*%
X40635000Y-26660000D03*
%TO.P,U3,13*%
%TO.N,Net-(U1-Pad1)*%
X38095000Y-26660000D03*
%TO.P,U3,14*%
%TO.N,VCC*%
X35555000Y-26660000D03*
%TD*%
D17*
%TO.N,Net-(U4-Pad38)*%
X42160300Y-56500800D02*
X42160300Y-74915000D01*
X50540800Y-48120300D02*
X42160300Y-56500800D01*
X50795000Y-48120300D02*
X50540800Y-48120300D01*
X50795000Y-46995000D02*
X50795000Y-48120300D01*
X40635000Y-74915000D02*
X42160300Y-74915000D01*
%TO.N,Net-(U4-Pad37)*%
X43021000Y-81674300D02*
X42160300Y-82535000D01*
X43021000Y-58153000D02*
X43021000Y-81674300D01*
X50513700Y-50660300D02*
X43021000Y-58153000D01*
X50795000Y-50660300D02*
X50513700Y-50660300D01*
X50795000Y-49535000D02*
X50795000Y-50660300D01*
X40635000Y-82535000D02*
X42160300Y-82535000D01*
%TO.N,Net-(U4-Pad36)*%
X50795000Y-52075000D02*
X50795000Y-53200300D01*
X40635000Y-85075000D02*
X42160300Y-85075000D01*
X50513700Y-53200300D02*
X50795000Y-53200300D01*
X49669600Y-54044400D02*
X50513700Y-53200300D01*
X49669600Y-77565700D02*
X49669600Y-54044400D01*
X42160300Y-85075000D02*
X49669600Y-77565700D01*
%TO.N,/D4*%
X32020300Y-80015000D02*
X26920300Y-74915000D01*
X35555000Y-80015000D02*
X32020300Y-80015000D01*
X25395000Y-74915000D02*
X26920300Y-74915000D01*
%TO.N,Net-(U4-Pad3)*%
X39109700Y-71739700D02*
X39109700Y-79995000D01*
X35955000Y-68585000D02*
X39109700Y-71739700D01*
X35229500Y-68585000D02*
X35955000Y-68585000D01*
X33445700Y-66801200D02*
X35229500Y-68585000D01*
X33445700Y-49948300D02*
X33445700Y-66801200D01*
X35273700Y-48120300D02*
X33445700Y-49948300D01*
X35555000Y-48120300D02*
X35273700Y-48120300D01*
X35555000Y-46995000D02*
X35555000Y-48120300D01*
X40635000Y-79995000D02*
X39109700Y-79995000D01*
%TO.N,Net-(U3-Pad11)*%
X35836300Y-56029700D02*
X35555000Y-56029700D01*
X43455400Y-48410600D02*
X35836300Y-56029700D01*
X43455400Y-37746600D02*
X43455400Y-48410600D01*
X44320500Y-36881500D02*
X43455400Y-37746600D01*
X44320500Y-31724500D02*
X44320500Y-36881500D01*
X46846400Y-29198600D02*
X44320500Y-31724500D01*
X46846400Y-25757700D02*
X46846400Y-29198600D01*
X46223400Y-25134700D02*
X46846400Y-25757700D01*
X43175000Y-25134700D02*
X46223400Y-25134700D01*
X35555000Y-57155000D02*
X35555000Y-56029700D01*
X43175000Y-26660000D02*
X43175000Y-25134700D01*
%TO.N,Net-(U3-Pad10)*%
X42046600Y-48123400D02*
X35555000Y-54615000D01*
X42046600Y-31853700D02*
X42046600Y-48123400D01*
X45715000Y-28185300D02*
X42046600Y-31853700D01*
X45715000Y-26660000D02*
X45715000Y-28185300D01*
%TO.N,Net-(U3-Pad5)*%
X45715000Y-34280000D02*
X45715000Y-35805300D01*
X45715000Y-36442200D02*
X45715000Y-35805300D01*
X44545600Y-37611600D02*
X45715000Y-36442200D01*
X44545600Y-53224400D02*
X44545600Y-37611600D01*
X40635000Y-57135000D02*
X44545600Y-53224400D01*
%TO.N,Net-(U3-Pad1)*%
X35555000Y-67315000D02*
X35555000Y-66189700D01*
X35555000Y-34280000D02*
X35555000Y-35805300D01*
X37138100Y-37388400D02*
X35555000Y-35805300D01*
X37138100Y-49543500D02*
X37138100Y-37388400D01*
X35876600Y-50805000D02*
X37138100Y-49543500D01*
X35153000Y-50805000D02*
X35876600Y-50805000D01*
X33896100Y-52061900D02*
X35153000Y-50805000D01*
X33896100Y-64812200D02*
X33896100Y-52061900D01*
X35273600Y-66189700D02*
X33896100Y-64812200D01*
X35555000Y-66189700D02*
X35273600Y-66189700D01*
%TO.N,Net-(U2-Pad15)*%
X36687800Y-48402200D02*
X35555000Y-49535000D01*
X36687800Y-46518600D02*
X36687800Y-48402200D01*
X35894200Y-45725000D02*
X36687800Y-46518600D01*
X34771000Y-45725000D02*
X35894200Y-45725000D01*
X32086400Y-43040400D02*
X34771000Y-45725000D01*
X30628100Y-43040400D02*
X32086400Y-43040400D01*
X29954700Y-42367000D02*
X30628100Y-43040400D01*
X29954700Y-41400500D02*
X29954700Y-42367000D01*
X30725200Y-40630000D02*
X29954700Y-41400500D01*
X32208900Y-40630000D02*
X30725200Y-40630000D01*
X33472800Y-39366100D02*
X32208900Y-40630000D01*
X33472800Y-29667500D02*
X33472800Y-39366100D01*
X33005300Y-29200000D02*
X33472800Y-29667500D01*
X31480000Y-29200000D02*
X33005300Y-29200000D01*
%TO.N,/D0*%
X27463700Y-62686300D02*
X25395000Y-64755000D01*
X27463700Y-34231000D02*
X27463700Y-62686300D01*
X29954700Y-31740000D02*
X27463700Y-34231000D01*
X31480000Y-31740000D02*
X29954700Y-31740000D01*
%TO.N,/D2*%
X25395000Y-69835000D02*
X26920300Y-69835000D01*
X31480000Y-34280000D02*
X33005300Y-34280000D01*
X33005300Y-37372300D02*
X33005300Y-34280000D01*
X32287600Y-38090000D02*
X33005300Y-37372300D01*
X30555300Y-38090000D02*
X32287600Y-38090000D01*
X28814500Y-39830800D02*
X30555300Y-38090000D01*
X28814500Y-67940800D02*
X28814500Y-39830800D01*
X26920300Y-69835000D02*
X28814500Y-67940800D01*
%TO.N,/D5*%
X23869700Y-66824500D02*
X23869700Y-77455000D01*
X24669200Y-66025000D02*
X23869700Y-66824500D01*
X26119000Y-66025000D02*
X24669200Y-66025000D01*
X28139200Y-64004800D02*
X26119000Y-66025000D01*
X28139200Y-38635500D02*
X28139200Y-64004800D01*
X29954700Y-36820000D02*
X28139200Y-38635500D01*
X31480000Y-36820000D02*
X29954700Y-36820000D01*
X25395000Y-77455000D02*
X23869700Y-77455000D01*
%TO.N,/D3*%
X31480000Y-39360000D02*
X29954700Y-39360000D01*
X25395000Y-72375000D02*
X26920300Y-72375000D01*
X35555000Y-77475000D02*
X34429700Y-77475000D01*
X28125000Y-71170300D02*
X34429700Y-77475000D01*
X28125000Y-71170300D02*
X26920300Y-72375000D01*
X29504400Y-69790900D02*
X28125000Y-71170300D01*
X29504400Y-39810300D02*
X29504400Y-69790900D01*
X29954700Y-39360000D02*
X29504400Y-39810300D01*
%TO.N,Net-(U2-Pad9)*%
X46002500Y-86222200D02*
X49669700Y-82555000D01*
X39777000Y-86222200D02*
X46002500Y-86222200D01*
X37905000Y-84350200D02*
X39777000Y-86222200D01*
X37905000Y-75652000D02*
X37905000Y-84350200D01*
X35918000Y-73665000D02*
X37905000Y-75652000D01*
X35155700Y-73665000D02*
X35918000Y-73665000D01*
X31480000Y-69989300D02*
X35155700Y-73665000D01*
X31480000Y-44440000D02*
X31480000Y-69989300D01*
X50795000Y-82555000D02*
X49669700Y-82555000D01*
%TO.N,/RESET*%
X25395000Y-85075000D02*
X23869700Y-85075000D01*
X23860000Y-36820000D02*
X22334700Y-36820000D01*
X23046000Y-84251300D02*
X23869700Y-85075000D01*
X23046000Y-45826400D02*
X23046000Y-84251300D01*
X22334700Y-45115100D02*
X23046000Y-45826400D01*
X22334700Y-36820000D02*
X22334700Y-45115100D01*
%TO.N,Net-(U1-Pad10)*%
X40635000Y-15485300D02*
X45715000Y-15485300D01*
X40635000Y-13960000D02*
X40635000Y-15485300D01*
X45715000Y-13960000D02*
X45715000Y-15485300D01*
%TO.N,/WR*%
X48255000Y-21580000D02*
X48255000Y-13960000D01*
%TO.N,Net-(U1-Pad13)*%
X42664400Y-20054700D02*
X43175000Y-20054700D01*
X38095000Y-15485300D02*
X42664400Y-20054700D01*
X38095000Y-13960000D02*
X38095000Y-15485300D01*
X43175000Y-21580000D02*
X43175000Y-20054700D01*
X35555000Y-62235000D02*
X35555000Y-61109700D01*
X43175000Y-21580000D02*
X43175000Y-23105300D01*
X35359500Y-61109700D02*
X35555000Y-61109700D01*
X34396700Y-60146900D02*
X35359500Y-61109700D01*
X34396700Y-54127200D02*
X34396700Y-60146900D01*
X35178900Y-53345000D02*
X34396700Y-54127200D01*
X35886200Y-53345000D02*
X35178900Y-53345000D01*
X39365000Y-49866200D02*
X35886200Y-53345000D01*
X39365000Y-25866700D02*
X39365000Y-49866200D01*
X42126400Y-23105300D02*
X39365000Y-25866700D01*
X43175000Y-23105300D02*
X42126400Y-23105300D01*
%TO.N,Net-(U1-Pad3)*%
X37049400Y-23105300D02*
X40635000Y-23105300D01*
X32150800Y-28003900D02*
X37049400Y-23105300D01*
X30669500Y-28003900D02*
X32150800Y-28003900D01*
X26920300Y-31753100D02*
X30669500Y-28003900D01*
X26920300Y-54595000D02*
X26920300Y-31753100D01*
X25395000Y-54595000D02*
X26920300Y-54595000D01*
X40635000Y-21580000D02*
X40635000Y-23105300D01*
%TO.N,Net-(U1-Pad1)*%
X34429600Y-31850700D02*
X38095000Y-28185300D01*
X34429600Y-40475700D02*
X34429600Y-31850700D01*
X33005300Y-41900000D02*
X34429600Y-40475700D01*
X31480000Y-41900000D02*
X33005300Y-41900000D01*
X38095000Y-26660000D02*
X38095000Y-28185300D01*
%TO.N,GND*%
X25385300Y-26660000D02*
X25385300Y-29200000D01*
X23860000Y-26660000D02*
X25385300Y-26660000D01*
X23860000Y-29200000D02*
X25385300Y-29200000D01*
X25385300Y-44440000D02*
X25385300Y-29200000D01*
X23860000Y-44440000D02*
X25385300Y-44440000D01*
X27860000Y-24185300D02*
X25385300Y-26660000D01*
X27860000Y-20320000D02*
X27860000Y-24185300D01*
X50795000Y-21580000D02*
X50795000Y-23105300D01*
X42634500Y-24660500D02*
X49380400Y-24660500D01*
X40635000Y-26660000D02*
X42634500Y-24660500D01*
X49380400Y-31340100D02*
X49380400Y-24660500D01*
X50795000Y-32754700D02*
X49380400Y-31340100D01*
X49380400Y-24519900D02*
X50795000Y-23105300D01*
X49380400Y-24660500D02*
X49380400Y-24519900D01*
X50795000Y-34280000D02*
X50795000Y-32754700D01*
%TO.N,VCC*%
X45974700Y-38220000D02*
X49669700Y-41915000D01*
X45720000Y-38220000D02*
X45974700Y-38220000D01*
X50795000Y-41915000D02*
X49669700Y-41915000D01*
X35555000Y-13960000D02*
X35555000Y-15485300D01*
X21884300Y-21295700D02*
X22860000Y-20320000D01*
X21884300Y-49942900D02*
X21884300Y-21295700D01*
X22202000Y-50260600D02*
X21884300Y-49942900D01*
X22202000Y-54728000D02*
X22202000Y-50260600D01*
X21050000Y-55880000D02*
X22202000Y-54728000D01*
X31084000Y-19164300D02*
X31480000Y-19560300D01*
X24015700Y-19164300D02*
X31084000Y-19164300D01*
X22860000Y-20320000D02*
X24015700Y-19164300D01*
X31480000Y-26660000D02*
X31480000Y-19560300D01*
X31480000Y-19560300D02*
X35555000Y-15485300D01*
%TD*%
M02*
