M48
; DRILL file {KiCad (6.0.10)} date Fri Dec 23 07:28:05 2022
; FORMAT={-:-/ absolute / inch / decimal}
; #@! TF.CreationDate,2022-12-23T07:28:05+11:00
; #@! TF.GenerationSoftware,Kicad,Pcbnew,(6.0.10)
; #@! TF.FileFunction,Plated,1,2,PTH
FMAT,2
INCH
; #@! TA.AperFunction,Plated,PTH,ComponentDrill
T1C0.0315
%
G90
G05
T1
X0.8287Y-2.0031
X0.8287Y-2.2
X0.9Y-0.8
X0.9394Y-1.0496
X0.9394Y-1.1496
X0.9394Y-1.2496
X0.9394Y-1.3496
X0.9394Y-1.4496
X0.9394Y-1.5496
X0.9394Y-1.6496
X0.9394Y-1.7496
X0.9998Y-2.1494
X0.9998Y-2.2494
X0.9998Y-2.3494
X0.9998Y-2.4494
X0.9998Y-2.5494
X0.9998Y-2.6494
X0.9998Y-2.7494
X0.9998Y-2.8494
X0.9998Y-2.9494
X0.9998Y-3.0494
X0.9998Y-3.1494
X0.9998Y-3.2494
X0.9998Y-3.3494
X0.9998Y-3.4494
X1.0969Y-0.8
X1.2394Y-1.0496
X1.2394Y-1.1496
X1.2394Y-1.2496
X1.2394Y-1.3496
X1.2394Y-1.4496
X1.2394Y-1.5496
X1.2394Y-1.6496
X1.2394Y-1.7496
X1.3998Y-0.5496
X1.3998Y-0.8496
X1.3998Y-1.0496
X1.3998Y-1.3496
X1.3998Y-1.6502
X1.3998Y-1.7502
X1.3998Y-1.8502
X1.3998Y-1.9502
X1.3998Y-2.0502
X1.3998Y-2.1502
X1.3998Y-2.2502
X1.3998Y-2.3502
X1.3998Y-2.4502
X1.3998Y-2.5502
X1.3998Y-2.6502
X1.3998Y-2.7502
X1.3998Y-2.8502
X1.3998Y-2.9502
X1.3998Y-3.0502
X1.3998Y-3.1502
X1.3998Y-3.2502
X1.3998Y-3.3502
X1.3998Y-3.4502
X1.3998Y-3.5502
X1.4998Y-0.5496
X1.4998Y-0.8496
X1.4998Y-1.0496
X1.4998Y-1.3496
X1.5998Y-0.5496
X1.5998Y-0.8496
X1.5998Y-1.0496
X1.5998Y-1.3496
X1.5998Y-2.1494
X1.5998Y-2.2494
X1.5998Y-2.3494
X1.5998Y-2.4494
X1.5998Y-2.5494
X1.5998Y-2.6494
X1.5998Y-2.7494
X1.5998Y-2.8494
X1.5998Y-2.9494
X1.5998Y-3.0494
X1.5998Y-3.1494
X1.5998Y-3.2494
X1.5998Y-3.3494
X1.5998Y-3.4494
X1.6031Y-1.5047
X1.6998Y-0.5496
X1.6998Y-0.8496
X1.6998Y-1.0496
X1.6998Y-1.3496
X1.7998Y-0.5496
X1.7998Y-0.8496
X1.7998Y-1.0496
X1.7998Y-1.3496
X1.8Y-1.5047
X1.8998Y-0.5496
X1.8998Y-0.8496
X1.8998Y-1.0496
X1.8998Y-1.3496
X1.9998Y-0.5496
X1.9998Y-0.8496
X1.9998Y-1.0496
X1.9998Y-1.3496
X1.9998Y-1.6502
X1.9998Y-1.7502
X1.9998Y-1.8502
X1.9998Y-1.9502
X1.9998Y-2.0502
X1.9998Y-2.1502
X1.9998Y-2.2502
X1.9998Y-2.3502
X1.9998Y-2.4502
X1.9998Y-2.5502
X1.9998Y-2.6502
X1.9998Y-2.7502
X1.9998Y-2.8502
X1.9998Y-2.9502
X1.9998Y-3.0502
X1.9998Y-3.1502
X1.9998Y-3.2502
X1.9998Y-3.3502
X1.9998Y-3.4502
X1.9998Y-3.5502
T0
M30
