%TF.GenerationSoftware,KiCad,Pcbnew,(6.0.10)*%
%TF.CreationDate,2022-12-23T07:28:06+11:00*%
%TF.ProjectId,bbc1770,62626331-3737-4302-9e6b-696361645f70,rev?*%
%TF.SameCoordinates,Original*%
%TF.FileFunction,Drillmap*%
%TF.FilePolarity,Positive*%
%FSLAX45Y45*%
G04 Gerber Fmt 4.5, Leading zero omitted, Abs format (unit mm)*
G04 Created by KiCad (PCBNEW (6.0.10)) date 2022-12-23 07:28:06*
%MOMM*%
%LPD*%
G01*
G04 APERTURE LIST*
%ADD10C,0.100000*%
%ADD11C,0.200000*%
G04 APERTURE END LIST*
D10*
X1778000Y-1270000D02*
X5334000Y-1270000D01*
X1778000Y-9398000D02*
X1778000Y-1270000D01*
X5461000Y-9398000D02*
X1778000Y-9398000D01*
X5461000Y-1270000D02*
X5461000Y-9398000D01*
X5461000Y-1270000D02*
X5334000Y-1270000D01*
D11*
X2030619Y-9713476D02*
X2030619Y-9513476D01*
X2078238Y-9513476D01*
X2106810Y-9523000D01*
X2125857Y-9542048D01*
X2135381Y-9561095D01*
X2144905Y-9599190D01*
X2144905Y-9627762D01*
X2135381Y-9665857D01*
X2125857Y-9684905D01*
X2106810Y-9703952D01*
X2078238Y-9713476D01*
X2030619Y-9713476D01*
X2230619Y-9713476D02*
X2230619Y-9580143D01*
X2230619Y-9618238D02*
X2240143Y-9599190D01*
X2249667Y-9589667D01*
X2268714Y-9580143D01*
X2287762Y-9580143D01*
X2354429Y-9713476D02*
X2354429Y-9580143D01*
X2354429Y-9513476D02*
X2344905Y-9523000D01*
X2354429Y-9532524D01*
X2363952Y-9523000D01*
X2354429Y-9513476D01*
X2354429Y-9532524D01*
X2478238Y-9713476D02*
X2459190Y-9703952D01*
X2449667Y-9684905D01*
X2449667Y-9513476D01*
X2583000Y-9713476D02*
X2563952Y-9703952D01*
X2554429Y-9684905D01*
X2554429Y-9513476D01*
X2811571Y-9713476D02*
X2811571Y-9513476D01*
X2878238Y-9656333D01*
X2944905Y-9513476D01*
X2944905Y-9713476D01*
X3125857Y-9713476D02*
X3125857Y-9608714D01*
X3116333Y-9589667D01*
X3097286Y-9580143D01*
X3059190Y-9580143D01*
X3040143Y-9589667D01*
X3125857Y-9703952D02*
X3106809Y-9713476D01*
X3059190Y-9713476D01*
X3040143Y-9703952D01*
X3030619Y-9684905D01*
X3030619Y-9665857D01*
X3040143Y-9646810D01*
X3059190Y-9637286D01*
X3106809Y-9637286D01*
X3125857Y-9627762D01*
X3221095Y-9580143D02*
X3221095Y-9780143D01*
X3221095Y-9589667D02*
X3240143Y-9580143D01*
X3278238Y-9580143D01*
X3297286Y-9589667D01*
X3306809Y-9599190D01*
X3316333Y-9618238D01*
X3316333Y-9675381D01*
X3306809Y-9694429D01*
X3297286Y-9703952D01*
X3278238Y-9713476D01*
X3240143Y-9713476D01*
X3221095Y-9703952D01*
X3402048Y-9694429D02*
X3411571Y-9703952D01*
X3402048Y-9713476D01*
X3392524Y-9703952D01*
X3402048Y-9694429D01*
X3402048Y-9713476D01*
X3402048Y-9589667D02*
X3411571Y-9599190D01*
X3402048Y-9608714D01*
X3392524Y-9599190D01*
X3402048Y-9589667D01*
X3402048Y-9608714D01*
M02*
